<?xml version="1.0" encoding="utf-8"?>
<!-- Uploaded to SVGRepo https://www.svgrepo.com -->
<svg version="1.2" baseProfile="tiny" id="Layer_1" xmlns="http://www.w3.org/2000/svg" xmlns:xlink="http://www.w3.org/1999/xlink"
	 x="0px" y="0px" viewBox="-63 65 128 128" xml:space="preserve" width="60" height="60">
<path d="M38.5,114.9h-74.9c-6.1,0-10.4,4.7-10.4,10.5v57.2c0,5.8,4.8,10.4,10.5,10.4h74.9c5.7,0,10.4-4.3,10.4-10.4v-57.2
	C48.9,119.6,44.3,114.9,38.5,114.9z M38,182.1h-74v-56.2h74V182.1z M7.4,92.9c-4.4-5,2.7-11.2,6.7-6.7l5.8,7.2l-0.2-22.7
	c-0.1-7.5,10.7-7.5,10.8,0l-0.2,22.7l5.8-7.1c4-4.4,11.1,1.7,6.7,6.7l-14.2,16.8c-2.3,2.2-5.2,2.2-7.4,0L7.4,92.9z M-40.9,83.6
	l14-16.9c2.3-2.2,5.2-2.2,7.4,0l14.1,16.8c4.4,5-2.7,11.1-6.7,6.7l-5.8-7.1l0.2,22.7c-0.1,7.6-11,7.5-10.9,0l0.2-22.7l-5.8,7.2
	C-38.1,94.8-45.3,88.6-40.9,83.6z M14.9,158.1v-13.8c0-1.6,1.3-2.7,2.7-2.7h11.1c1.6,0,2.7,1.2,2.7,2.7v13.8c0,1.1-0.9,1.9-1.9,1.9
	h-1.2v18.2c0,3.3-4.8,3.3-4.8,0V160h-0.7v18.2c0,3.3-4.8,3.3-4.8,0V160h-1.2C15.8,160,14.9,159.2,14.9,158.1z M19.6,137
	c0-2,1.6-3.6,3.6-3.6s3.6,1.6,3.6,3.6s-1.6,3.6-3.6,3.6S19.6,138.9,19.6,137z M-7.3,158.1v-13.8c0-1.6,1.3-2.7,2.7-2.7H6.5
	c1.6,0,2.7,1.2,2.7,2.7v13.8c0,1.1-0.9,1.9-1.9,1.9H6.1v18.2c0,3.3-4.8,3.3-4.8,0V160H0.6v18.2c0,3.3-4.8,3.3-4.8,0V160h-1.1
	C-6.4,160-7.3,159.2-7.3,158.1z M-2.6,137c0-2,1.6-3.6,3.6-3.6s3.6,1.6,3.6,3.6S3,140.6,1,140.6S-2.6,138.9-2.6,137z M-29.5,158.1
	v-13.8c0-1.6,1.3-2.7,2.7-2.7h11.2c1.6,0,2.7,1.2,2.7,2.7v13.8c0,1.1-0.9,1.9-1.9,1.9H-16v18.2c0,3.3-4.8,3.3-4.8,0V160v-0.5h-0.1
	v0.5h-0.7v18.2c0,3.3-4.8,3.3-4.8,0V160h-1.1C-28.5,160-29.5,159.2-29.5,158.1z M-24.7,137c0-2,1.6-3.6,3.6-3.6s3.6,1.6,3.6,3.6
	s-1.6,3.6-3.6,3.6S-24.8,138.9-24.7,137z"/>
</svg>
